<svg height="310.30479" viewBox="0 0 206.35774 198.5" width="322.263798" xmlns="http://www.w3.org/2000/svg"><path d="m158.36287 171.3a7.7931 7.7931 0 0 1 7.8 8 7.90062 7.90062 0 1 1 -15.80061.10063q0-.05033.00063-.10063a8 8 0 0 1 8-8zm0 1.3a6.75956 6.75956 0 1 0 6.4 6.8 6.57788 6.57788 0 0 0 -6.4-6.8zm-1.5 11.3h-1.4v-8.9l2.5-.2a5.00014 5.00014 0 0 1 2.8.7 2.19714 2.19714 0 0 1 .8 1.8 2.27462 2.27462 0 0 1 -1.7 2.2v.1c.8.1 1.3.9 1.5 2.2a5.328 5.328 0 0 0 .6 2.2h-1.5a7.71406 7.71406 0 0 1 -.6-2.3 1.71364 1.71364 0 0 0 -1.9-1.6h-1zm0-4.9h1c1.2 0 2.2-.4 2.2-1.5 0-.8-.6-1.6-2.2-1.6l-1 .1z" fill="#e03a3e"/><path d="m192.06287 28.5c-13.8-18.4-35.8-28.5-62-28.5-53.8 0-110.3 43.7-125.9 97.4-8 27.5-4.4 53.3 10.2 72.6 13.8 18.4 35.8 28.5 62 28.5 53.8 0 110.3-43.7 125.9-97.4 7.9-27.5 4.3-53.3-10.2-72.6z" fill="#fff"/><path d="m67.86287 63.1.2-.1.5-.1 30.9-5 .8-.1h.1l.1.1.7.5 4.3 3.1.4-2.8.2-1.5v-.3h.3l1.5-.2 84.3-13.4a61.00006 61.00006 0 0 0 -29.6-29.7 82.4 82.4 0 0 0 -48.1-5.7c-35.1 5.6-69.4 29.4-89.6 62l35.2-5.7 2.6-.4.5-.1-.1.5-.3 2.6-.1.6 4.8-3.9z" fill="#004785"/><path d="m16.86287 84.5 35.8-5.7.5-.1-.1.5-1.4 11.8v.3h-.3l-22.5 3.8-1 7.7 19.2-3.2.5-.1-.1.5-1.5 12.2v.3h-.3l-19.4 3.3-1.1 8.7 22.3-3.8.5-.1-.1.5-1.5 12.2v.3h-.3l-37.1 6a71.87588 71.87588 0 0 0 3.9 13.2l99.2-15.9.9-.1-.6.7a17.26016 17.26016 0 0 0 -2.4 3.8l-.1.2h-.2l-95 15.2c.8 1.7 1.7 3.3 2.7 5l90.7-14.5.4-.1v.4a7.21579 7.21579 0 0 0 .8 3.2l.2.4-.5.1-89 14.3c1.2 1.7 2.5 3.3 3.8 4.8l90.6-14.6h.2l1.3.5c4.9 1.4 11.5.1 18.3-3.7 7.1-3.9 12.1-9.8 13-15.4l.2-1.2.5 1.1 2.1 4.9c3.3 6-1.3 14.4-10.7 19.6s-19 4.7-22.3-1.2l-.5-.7-89.1 14.3a63.50013 63.50013 0 0 0 27.5 15.2 87.10022 87.10022 0 0 0 36.9 1.5 127 127 0 0 0 59.9-28.1c17.4-14.4 31.3-33 39.1-52.4l-28.9 4.6-.5.1.1-.5 6.5-52.5v-.3h.3l21.7-3.5.5-.1-.1.5-4.9 39.1 9.8-1.6a111.466 111.466 0 0 0 2.3-12.1c1.6-13.1.3-25.3-3.7-36.2l-83.7 13.3-.7 5-.5 3.3-.1.6-.5-.3-2.7-1.9-6.6-4.8-29.3 4.7-8.9 7.2-3.8 3.1-.7.5.1-.9.6-4.9.4-3.3-36 5.8c-1.6 3.2-3.2 6.3-4.6 9.5z" fill="#e03a3e"/><path d="m112.36287 149.7a6.53614 6.53614 0 0 0 4 2.9c4.3 1.2 10.5.1 16.2-3.1 8.4-4.7 13.4-12.5 10.8-17-2.5-4.6-11.8-4.5-20.2.2-8.3 4.7-13.3 12.5-10.8 17zm-7.3-71.6-6.6-4.6-29.6 4.7-10.8 8.6-4.5 35.9 10.1 7 24.4-3.9 12.2-8.8 2-16-20.3 3.3-1.5 11.6v.2l-.2.1-6 .9-.5.1.1-.4 3.2-25.8v-.2l.3-.1 5.6-.9h.5l-.1.4-.7 6 20.6-3.3zm1.7 44.7 20.3-3.2 2.4-19.4.1-.3h.2l5.6-.9.5-.1-.1.5-2.3 19.1 21.6-3.4 6.5-51.8-21.7 3.5-2.5 20.1v.2l-.3.1-6 .9-.4.1v-.5l2.5-19.8-20 3.2zm-29.2-83.9-2.9-9.1-5.5 10.5-11.9 1.9 8.6 4.3-6.1 11.9 12.3-8.9 10.5 5.2-3.3-10.4 10.2-7.3zm77.3-6.4 10.2-7.3-11.9 1.9-2.9-9.2-5.5 10.5-11.9 2 8.7 4.3-6.2 11.8 12.3-8.8 10.5 5.2zm-39.2.4-2.9-9.2-5.5 10.5-11.9 1.9 8.7 4.3-6.2 11.9 12.3-8.9 10.5 5.2-3.3-10.3 10.2-7.3z" fill="#fff"/></svg>