<svg height="377.336471" viewBox="0 0 473.70023 674.69995" width="265.015464" xmlns="http://www.w3.org/2000/svg"><path d="m312.80012 111a200.18166 200.18166 0 0 1 58.7 19.7l-13 5.4a69 69 0 0 0 29.3 24.3c11.9 17.5 50.3 26.6 61.5 25.2l-25.6 14.8s46.3 28.3 44.8 74.7l-5.6-1.8s41.5 80.6-38.2 153.5l-2.8-5s-6 12.1-11.2 18.3c0 0 6.1 21.9 28.7 45.7 0 0-28.2 5.8-49.7 4.4 0 0-2.3 43.2-33.1 70.7l-8.4-2.3s-14 32.9-56.4 45l-3.3-7.2s-38.7 23.4-51.7 78.3a129.80007 129.80007 0 0 0 -51.7-78.3l-3.3 7.2c-42.4-12.2-56.4-45-56.4-45l-8.4 2.4c-30.7-27.4-33-70.6-33-70.6-21.4 1.3-49.7-4.4-49.7-4.4 22.5-23.8 28.7-45.7 28.7-45.7-5.2-6.3-11.2-18.3-11.2-18.3l-2.8 5c-79.7-73-38.2-153.6-38.2-153.6l-5.6 1.8c-1.5-46.4 44.7-74.7 44.7-74.7l-25.6-14.8c11.2 1.3 49.6-7.7 61.5-25.2a69.55626 69.55626 0 0 1 29.4-24.3l-13-5.4a195.59986 195.59986 0 0 1 59.6-19.1s-1.6-17.2-19.9-26c0 0 9.6-7.1 16.4-10.1 0 0-5.5-16.3-9.6-22.1l-20.6-14.1 19.2-27.8 31.5 22.1-5 7.9s11.4 3.5 18.7-5.3l-10.8-9.3 23.7-27 27.9 23-9.6 11.5s15.1 5.7 27.4-.4l-9.6-11 27.9-23 23.8 26-11 9.7a17.30394 17.30394 0 0 0 19.2 5.3l-4.6-7.1 31.5-22.5 18.7 27.8-21.5 15.4s-7.3 11.9-8.7 20.3c0 0 11 7.1 14.6 11 .10001.1-15.89999 6.5-18.6 25z" fill="#a7b1b7"/><path d="m236.80014 69.2s-55.1-1-81.3 16.5c0 0 11.3 6.1 15.4 33.9 0 0-27.9 2.2-45.3 10.1 0 0 12.8 4.4 19.2 9.3 0 0-25.6-.9-42 15.9s-22.4 27.4-51.7 34.9l17.4 10.6s-42 18.1-52.1 60.9l13.7-4.4s-55.8 76.8 16 154.1l6.4-13.7s3.2 18.5 20.6 40.6a100.82067 100.82067 0 0 1 -19.7 41.5s19.2 4.4 38.4.4c0 0 1.4 46.3 27.4 71.1l11.4-3.1s10.5 32.7 46.2 44.2l4.1-9.3s35 17.4 55.9 64.1c20.9-46.7 55.9-64.1 55.9-64.1l4.1 9.3c35.7-11.5 46.2-44.2 46.2-44.2l11.4 3.1c26-24.7 27.4-71.1 27.4-71.1 19.2 4 38.4-.4 38.4-.4a100.821 100.821 0 0 1 -19.7-41.5c17.4-22.1 20.6-40.6 20.6-40.6l6.4 13.7c71.7-77.3 16-154.1 16-154.1l13.7 4.4c-10.1-42.8-52.1-60.9-52.1-60.9l17.4-10.6c-29.2-7.5-35.2-18.1-51.6-34.9-16.5-16.8-42-15.9-42-15.9 6.4-4.8 19.2-9.3 19.2-9.3-17.4-7.9-45.3-10.1-45.3-10.1 4.1-27.8 15.4-33.9 15.4-33.9-26.3-17.6-81.4-16.5-81.4-16.5z" fill="#231f20"/><path d="m71.60013 202s37.4-16.5 74.1 5.1c0 0-7.6-24.7-55.4-32.4l-13.1 11.4-11.8 5.1 6.2 3.8zm330.7 0s-37.4-16.5-74.1 5.1c0 0 7.6-24.7 55.4-32.4l13.1 11.4 11.8 5.1-6.2 3.8zm-333.7 51.8s-78.9 51.6-25.4 123.4c0 0-9.8-53.2 38.1-95.3a118.57772 118.57772 0 0 1 -12.7-28.1zm339.6 0s78.9 51.6 25.4 123.4c0 0 9.8-53.2-38.1-95.3a118.57686 118.57686 0 0 0 12.7-28.1z" fill="#5c3896"/><path d="m335.80012 37.2-9.8-14.3-18.2 12.7 6.2 8.9c-15 8.8-30.7 7.8-43.6-9.7l11.4-9.4-13.1-14.3-15.3 12.7 10 10.9h-.1c-4 4.4-9.5 10.1-25.9 10.1-15.9 0-21.4-5.4-25.6-9.8l10-11.1-15.5-12.7-12.9 14.3 11.2 9.2c-13.5 20.7-31.2 17.5-43.2 10.2l6.4-9.4-18.4-12.7-9.7 14.3 15.5 10.7c4.6 9.3 8.2 14.5 10.9 25.8 15.7-6.6 41.4-11.1 70.8-11.1 29.8 0 55.9 4.6 71.7 11.3 2.5-10.9 6.1-15.7 10.4-24.9z" fill="#231f20"/><g stroke-miterlimit="2"><path d="m150.80014 27.7-6.1 8.9 11.8 8.1zm55.8-11.6-8.1 8.9 9.9 8.2zm112.4 28.9-6.2-8.9 11.7-8.1zm-52.3-11.8-8.3-8.9 9.9-8.2z" fill="#f26725" stroke="#231f20" stroke-width=".5537"/><path d="m237.20013 77-8.9 10.9 9 10.8" fill="#fff" stroke="#f26725" stroke-width=".4156"/><path d="m237.30014 98.7 8.9-10.8-9-10.9" fill="#f26722" stroke="#f26725" stroke-width=".3747"/><path d="m263.10014 79.6-8.8 9.2 8.1 11.4" fill="#fff" stroke="#f26725" stroke-width=".3948"/><path d="m262.40013 100.2 8.8-9.2-8.1-11.4" fill="#f26722" stroke="#f26725" stroke-width=".3747"/><path d="m288.20015 84.2-8.5 8.2 7.4 11.3" fill="#fff" stroke="#f26725" stroke-width=".3747"/><path d="m287.10014 103.7 8.5-8.2-7.4-11.3" fill="#f26722" stroke="#f26725" stroke-width=".3747"/><path d="m212.10014 100.2-8.9-9.2 7.8-11.4" fill="#fff" stroke="#f26725" stroke-width=".3747"/><path d="m211.00013 79.6 9 9.2-7.9 11.4" fill="#f26722" stroke="#f26725" stroke-width=".3747"/><path d="m187.40013 103.7-8.7-8.3 7.3-11.3" fill="#fff" stroke="#f26725" stroke-width=".3747"/><path d="m186.00013 84.1 8.6 8.3-7.2 11.3" fill="#f26722" stroke="#f26725" stroke-width=".3747"/></g><path d="m237.90013 143.8s28.3-12.1 52.7-12.5c0 0-32.9 21.8-52.7 67.2a164.10019 164.10019 0 0 0 -52.7-67.2c24.3.4 52.7 12.5 52.7 12.5z" fill="#5c3896"/><path d="m236.80014 600a115 115 0 0 0 -63.5-62.2l-3.8 8.3c-21.9-9.7-30.5-53.3-30.5-53.3a26.4 26.4 0 0 1 -11.9 12.9c-25.3-34-10-79.6-10-79.6-7.2 12.4-24.3 16.5-24.3 16.5 17.6-23.5-2.4-65.3-2.4-65.3l-13.3 11.5c-14.3-42.8 14.3-82.8 14.3-82.8-9 2.8-21.9 12-21.9 12a78.00005 78.00005 0 0 1 23.8-37.7c-26.2-35.9-9.1-69.9-9.1-69.9a73 73 0 0 1 61.4 9.7 68.99986 68.99986 0 0 1 15.7-12.4c-18.6-30.8-54.8-38.2-54.8-38.2 18.1-24.4 51.9-17 51.9-17 17.1 13.8 23.8 48.8 23.8 48.8a105.61577 105.61577 0 0 1 11-.5c-5.2-42.8-26.2-63.5-26.2-63.5 40 12.4 57.6 72.2 57.6 72.2 11.9 1.4 17.2-.9 17.2-.9a20.71008 20.71008 0 0 1 -5.1 6.8s3.4 1.4 10.8-1.4c0 0 14.1-58.9 58.9-76.9 0 0-24 25.5-26.4 66.4 0 0 7.7-.7 11.3-.7 0 0 6-36.1 24-50 0 0 32.4-8.2 52.2 17 0 0-34.2 4.8-55.3 38.5a54.00013 54.00013 0 0 0 15.5 12.3s30.3-21.8 62-10.6c0 0 17.3 33.4-9.5 70.1 0 0 19 16 24.7 38.8 0 0-13-9.9-22.5-13.3 0 0 28.2 37.8 14.8 84.1l-10.6-9.9s-19.4 36.4-1.4 65.4c0 0-16.6-1.7-25.7-17 0 0 19.1 43.6-11.6 84.1 0 0-10.9-3.4-13.8-11.9 0 0-5.6 35.1-29.2 51.7l-5.6-10.2c-.2-.1-46 24.4-62.5 58.1z" fill="#5c3896"/><path d="m236.90013 264.7c15.7-8.6 28.3-1.8 28.3-1.8s6 4 17.6 4a25.86215 25.86215 0 0 0 18.1-7c27.5 3.7 35.2-6.8 35.2-6.8 4.3 12.1-5.8 17.2-5.8 17.2-4.8 28.4-28.5 23.1-28.5 23.1 27.7 31.9 24.8 45.2 24.8 45.2l-7.2-2.1c7.5 34.4-14.2 52.8-14.2 52.8l8.7 41.9c7.2 35.4-20 53.5-20 53.5 19.6 29-13.1 40.3-13.1 40.3 41.5-11.9 22.7-39.4 22.7-39.4 23.9-19.4 24.6-44.9 21.5-52.6a38.615 38.615 0 0 1 -2.7-14.9l13.7 4.3c-6.3-28.4 9.5-55.2 9.5-55.2l7.6 2.8c18.4-48.9 3-72.2 1.5-73.3a23.3749 23.3749 0 0 1 -3.4-4c-8.2-14.2 9.6-10.5 9.6-10.5-10.9-24.5-45.1-48.4-45.1-48.4l-4.1 9.5c-10.3-34.8-35.5-30.2-48-22-12.5 8.1-26.9 7.3-26.9 7.3s-14.4.8-27-7.3c-12.5-8.2-37.7-12.8-48 22l-4.1-9.5s-34.2 24-45.1 48.4c0 0 17.8-3.7 9.6 10.5a23.37514 23.37514 0 0 1 -3.4 4c-1.5 1.2-16.9 24.5 1.5 73.3l7.6-2.8s15.8 26.9 9.5 55.2l13.7-4.3a36.4947 36.4947 0 0 1 -2.7 14.9c-3.1 7.7-2.5 33.2 21.4 52.6 0 0-18.8 27.5 22.7 39.4 0 0-32.6-11.3-13-40.3 0 0-27.2-18.1-20-53.5l8.7-41.9s-21.7-18.4-14.2-52.8l-7.2 2.1s-2.9-13.3 24.8-45.2c0 0-23.6 5.3-28.5-23.1 0 0-10.1-5.1-5.8-17.2 0 0 7.7 10.5 35.2 6.8a25.86214 25.86214 0 0 0 18.1 7c11.5 0 17.6-4 17.6-4s12.5-6.7 28.3 1.8" fill="#fff"/><path d="m236.90013 567.7c0-20.2 10.3-41.4 10.3-41.4-1.1 5.9.2 26.2.2 26.2 3.7-12.3 13.5-29 13.5-29-.8 4.2.5 17.7.5 17.7 7.1-20.8 18.1-25.5 18.1-25.5s3.4 0 8.2-7.3c7.6-11.7-7.3-25.3-7.3-25.3 32.3-21.2 25.6-44 25.6-44l-10.6-52.4c7.8-11.2 7.9-25.2 7.9-25.2a128.69338 128.69338 0 0 1 -36.3 4.2v-1.4c28.6-4.2 36-13.5 36-13.5a17.55816 17.55816 0 0 0 -.4-2.9c-12.4 4.5-29.9 4-29.9 4v-1.1c27.8-5.5 27.2-15.5 27.2-15.5-2.7-8-5.7-14.8-5.7-14.8l19.3 4.6c-53.4-83-76.5-48-76.5-48s-23.2-35.1-76.6 48l19.3-4.6s-3 6.8-5.7 14.8c0 0-.5 10 27.2 15.5v1.1s-17.5.5-29.9-4a17.55775 17.55775 0 0 0 -.4 2.9s7.5 9.3 36 13.5v1.4a124.54184 124.54184 0 0 1 -36.3-4.2s.1 14 7.9 25.2l-10.7 52.3s-6.7 22.9 25.6 44c0 0-14.9 13.5-7.3 25.3 4.8 7.3 8.2 7.3 8.2 7.3s11 4.7 18.1 25.5c0 0 1.3-13.5.5-17.7 0 0 9.7 16.8 13.4 29 0 0 1.3-20.3.3-26.2 0 .1 10.3 21.3 10.3 41.5z" fill="#fff"/><path d="m222.10014 341.8a10.26967 10.26967 0 0 0 4.4-7.2v-.9c0-5.6-5.2-10.2-11.6-10.3a12.85336 12.85336 0 0 0 -6.5 1.7 4.0001 4.0001 0 0 0 -1.7 1.9l-1.4 4.5a10.52872 10.52872 0 0 1 12.9-1.2c7.6 4.3-1.2 12.5-3.6 13.5 0 0 13 5.3 13.7 23 3.8-1.7 6.3-2.6 6.3-2.6 0-16.5-12.5-22.4-12.5-22.4zm-21 10.1s-17.5.5-29.9-4a17.55775 17.55775 0 0 0 -.4 2.9 13.10989 13.10989 0 0 0 2.5 2.2c13.6 1.4 27.8-1.1 27.8-1.1zm5.7 13.7a124.54173 124.54173 0 0 1 -36.3-4.2 41.08051 41.08051 0 0 0 .4 4.9c13.2 3 35.9-.7 35.9-.7z" fill="#a7b1b7"/><path d="m272.70015 351.9s17.5.5 29.9-4a17.55816 17.55816 0 0 1 .4 2.9 13.11032 13.11032 0 0 1 -2.5 2.2c-13.60002 1.4-27.8-1.1-27.8-1.1zm-5.7 13.7a124.54157 124.54157 0 0 0 36.3-4.2 41.08152 41.08152 0 0 1 -.4 4.9c-13.3 3-35.9-.7-35.9-.7z" fill="none"/><path d="m265.20015 262.8s6 4 17.6 4a25.86215 25.86215 0 0 0 18.1-7c27.5 3.7 35.2-6.8 35.2-6.8 4.3 12.1-5.8 17.2-5.8 17.2-4.8 28.4-28.5 23.1-28.5 23.1 27.7 31.9 24.8 45.2 24.8 45.2l-7.2-2.1c7.5 34.4-14.2 52.8-14.2 52.8l8.7 41.9c7.2 35.4-20 53.5-20 53.5 19.6 29-13.1 40.3-13.1 40.3 41.5-11.9 22.7-39.4 22.7-39.4 23.9-19.4 24.6-44.9 21.5-52.6a38.615 38.615 0 0 1 -2.7-14.9l13.7 4.3c-6.3-28.4 9.5-55.2 9.5-55.2l7.7 2.8c18.4-48.9 3-72.2 1.5-73.3a23.37514 23.37514 0 0 1 -3.4-4c-8.2-14.2 9.6-10.5 9.6-10.5-10.9-24.5-45.1-48.4-45.1-48.4l-4.1 9.5c-10.3-34.8-35.5-30.2-48-22-12.5 8.1-26.9 7.3-26.9 7.3s-14.4.8-27-7.3c-9.1-5.9-24.7-10-36.6 1.4 7.9-2.9 21.4-5 34.8 5.1 21 15.9 48.6 7.1 50.5 5.5 0 0-7.2 6.9-16.2 10 0 0 2.3 9.5-4.4 20.9 15.3-7.7 27.3-1.3 27.3-1.3z" fill="#a7b1b7"/><path d="m247.20013 526.3c-1.1 5.9.2 26.2.2 26.2 3.7-12.3 13.5-29 13.5-29-.8 4.2.5 17.7.5 17.7 7.1-20.8 18.1-25.5 18.1-25.5s3.4 0 8.2-7.3c7.6-11.7-7.3-25.3-7.3-25.3 32.3-21.2 25.6-44 25.6-44l-10.6-52.4c7.8-11.2 7.9-25.2 7.9-25.2a128.69338 128.69338 0 0 1 -36.3 4.2v-1.4c28.6-4.2 36-13.5 36-13.5a17.55816 17.55816 0 0 0 -.4-2.9c-12.4 4.5-29.9 4-29.9 4v-1.1c27.8-5.5 27.2-15.5 27.2-15.5-2.7-8-5.7-14.8-5.7-14.8l19.3 4.6c-45-70-68.5-56.1-74.8-50 2.4 6.9 5.8 20.6-.9 29.1h.1c14.4 0 18.1-1.5 18.1-1.5s8.5-2.6 12.5-2.6c8.6 0 22.2 1.6 20.1 11.9-3 15-18 21.9-18 21.9h-.1c0-3-.6-7-3.2-8.5a12.90026 12.90026 0 0 0 -6.5-1.7c-6.4 0-11.6 4.6-11.6 10.3v.9a10 10 0 0 0 4.4 7.2 26.07681 26.07681 0 0 0 -12.5 22.5s26.3 9.6 39.3 23.7c10.1 11 13.1 26.1 13.1 26.1s12 27.8.7 39.9c0 0-8.3 12.4-16.1 18.6 0 0-1.3 9.2-6.7 14.9 0 0-29.2-10.4-66.8-.4l1.1 1.4s20.9-1.9 32-.5c0 0 1.1 21.4-11.1 38.4 0 0 10.3 21.2 10.3 41.4 0-20.6 10.3-41.8 10.3-41.8z" fill="#a7b1b7"/><path d="m293.30012 414.2s-3-15.1-13.1-26.1c-13-14.1-39.3-23.7-39.3-23.7a26.07683 26.07683 0 0 1 12.5-22.5 9.99992 9.99992 0 0 1 -4.4-7.2v-.9c0-5.6 5.2-10.2 11.6-10.3a12.85348 12.85348 0 0 1 6.5 1.7c2.5 1.5 3.2 5.6 3.2 8.5h.1s14.9-6.9 18-21.9c2.1-10.3-11.5-11.9-20.1-11.9-4 0-12.5 2.6-12.5 2.6s-3.7 1.5-18.1 1.5-17.5-1.9-17.5-1.9-9-2.1-12.9-2.2c-8.7 0-22.2 1.6-20.1 11.9 3 15 18 21.9 18 21.9h.1c0-3 .6-7 3.2-8.5a12.58813 12.58813 0 0 1 6.5-1.7c6.4 0 11.6 4.6 11.6 10.3v.9a9.99992 9.99992 0 0 1 -4.4 7.2s12.5 5.9 12.5 22.5c0 0-26.3 9.6-39.3 23.7-10.1 11-13.1 26.1-13.1 26.1s-12 27.8-.7 39.9c0 0 8.2 12.4 16.1 18.6 0 0-3.7-13.1 6-19.9 0 .1-1.1 14.9 15.4 23.1l4.7-8.3 4.6 6.2v.1l4.7-8.1 4.6 8.1.1-.1.1.1 4.7-8.1 4.7 8.1.1-.1 4.7-6.2 4.7 8.3c16.4-8.2 15.4-23 15.4-23.1 9.8 6.9 6 19.9 6 19.9 7.9-6.2 16.1-18.6 16.1-18.6 11-12.1-1-39.9-1-39.9z" fill="#5c3896"/><path d="m237.60014 310.6s9.6.6 16.8-1.6c12.9-4 19.5 1.8 19.5 1.8s-6.6.3-19.5 4.2c-6.3 1.9-16.8 1.6-16.8 1.6s-10.5.4-16.8-1.6c-12.9-4.1-19.6-4.2-19.6-4.2s6.7-6 19.6-1.8c6.1 2 16.8 1.6 16.8 1.6z" fill="#fff" stroke="#5c3896" stroke-width=".5109"/><path d="m237.80014 393.6 5.7-8.1 4.2 8 5.4-6.9 3.1 8 5.7-4.7c5.3 9.6 4.1 24.4 4.1 24.4a23.62416 23.62416 0 0 0 7-15.4 28.34043 28.34043 0 0 1 4.9 1.2c-11.6-19.7-40-25.1-40-25.1s-28.4 5.4-40 25.1a28.34076 28.34076 0 0 1 4.9-1.2s-.2 8.1 6.9 15.4c0 0-1.1-14.8 4.1-24.4l5.7 4.7 3.1-8 5.3 6.9 4.2-8zm-81.2-122.3a7.1 7.1 0 0 0 -1.5 4.4c0 5 5.3 9 11.9 9 5 0 9.3-2.3 11-5.7l-5-2.6c-.5 2.1-2.9 3.8-5.8 3.8-3.3 0-5.8-2-5.8-4.5a4 4 0 0 1 1.6-3.1zm160.7 0a7.09961 7.09961 0 0 1 1.5 4.4c0 5-5.3 9-11.8 9-5 0-9.2-2.3-11-5.7l5-2.6c.4 2.1 2.9 3.8 5.8 3.8 3.2 0 5.9-2 5.9-4.5a4 4 0 0 0 -1.6-3.1zm-227-54.4s-6.7 35.5 12.2 55.3c0 0 4.8-8.3 8.3-12.9l1.5 4.8s5.2-6.9 9-11.5-12.6-26.4-31-35.7z" fill="#fff"/><path d="m383.60014 216.9s6.7 35.5-12.2 55.3a143.47086 143.47086 0 0 0 -8.4-12.9l-1.5 4.8s-5.2-6.9-9-11.5c-3.7-4.6 12.7-26.4 31.1-35.7z" fill="#a7b1b7"/></svg>